<mxfile host="app.diagrams.net" modified="2021-07-08T23:41:37.023Z" agent="5.0 (Windows NT 10.0; Win64; x64) AppleWebKit/537.36 (KHTML, like Gecko) Chrome/91.0.4472.124 Safari/537.36" etag="d4uqvigdxkbsg647HJUD" version="14.8.4" type="github">
  <diagram id="OEhl3YP8Djd3sdIk2Py4" name="Page-1">
    <mxGraphModel dx="1185" dy="614" grid="1" gridSize="10" guides="1" tooltips="1" connect="1" arrows="1" fold="1" page="1" pageScale="1" pageWidth="850" pageHeight="1100" math="0" shadow="0">
      <root>
        <mxCell id="0" />
        <mxCell id="1" parent="0" />
        <mxCell id="MMZsTFJy08IuMzdYPkEU-1" value="Quiz Table" style="shape=table;startSize=30;container=1;collapsible=1;childLayout=tableLayout;fixedRows=1;rowLines=0;fontStyle=1;align=center;resizeLast=1;" vertex="1" parent="1">
          <mxGeometry x="10" y="160" width="220" height="90" as="geometry" />
        </mxCell>
        <mxCell id="MMZsTFJy08IuMzdYPkEU-2" value="" style="shape=partialRectangle;collapsible=0;dropTarget=0;pointerEvents=0;fillColor=none;top=0;left=0;bottom=1;right=0;points=[[0,0.5],[1,0.5]];portConstraint=eastwest;" vertex="1" parent="MMZsTFJy08IuMzdYPkEU-1">
          <mxGeometry y="30" width="220" height="30" as="geometry" />
        </mxCell>
        <mxCell id="MMZsTFJy08IuMzdYPkEU-3" value="PK" style="shape=partialRectangle;connectable=0;fillColor=none;top=0;left=0;bottom=0;right=0;fontStyle=1;overflow=hidden;" vertex="1" parent="MMZsTFJy08IuMzdYPkEU-2">
          <mxGeometry width="30" height="30" as="geometry" />
        </mxCell>
        <mxCell id="MMZsTFJy08IuMzdYPkEU-4" value="QuizID" style="shape=partialRectangle;connectable=0;fillColor=none;top=0;left=0;bottom=0;right=0;align=left;spacingLeft=6;fontStyle=5;overflow=hidden;" vertex="1" parent="MMZsTFJy08IuMzdYPkEU-2">
          <mxGeometry x="30" width="90" height="30" as="geometry" />
        </mxCell>
        <mxCell id="MMZsTFJy08IuMzdYPkEU-70" value="TINYINT (US)" style="shape=partialRectangle;connectable=0;fillColor=none;top=0;left=0;bottom=0;right=0;align=left;spacingLeft=6;fontStyle=5;overflow=hidden;" vertex="1" parent="MMZsTFJy08IuMzdYPkEU-2">
          <mxGeometry x="120" width="100" height="30" as="geometry" />
        </mxCell>
        <mxCell id="MMZsTFJy08IuMzdYPkEU-5" value="" style="shape=partialRectangle;collapsible=0;dropTarget=0;pointerEvents=0;fillColor=none;top=0;left=0;bottom=0;right=0;points=[[0,0.5],[1,0.5]];portConstraint=eastwest;" vertex="1" parent="MMZsTFJy08IuMzdYPkEU-1">
          <mxGeometry y="60" width="220" height="30" as="geometry" />
        </mxCell>
        <mxCell id="MMZsTFJy08IuMzdYPkEU-6" value="" style="shape=partialRectangle;connectable=0;fillColor=none;top=0;left=0;bottom=0;right=0;editable=1;overflow=hidden;" vertex="1" parent="MMZsTFJy08IuMzdYPkEU-5">
          <mxGeometry width="30" height="30" as="geometry" />
        </mxCell>
        <mxCell id="MMZsTFJy08IuMzdYPkEU-7" value="QuizName" style="shape=partialRectangle;connectable=0;fillColor=none;top=0;left=0;bottom=0;right=0;align=left;spacingLeft=6;overflow=hidden;" vertex="1" parent="MMZsTFJy08IuMzdYPkEU-5">
          <mxGeometry x="30" width="90" height="30" as="geometry" />
        </mxCell>
        <mxCell id="MMZsTFJy08IuMzdYPkEU-71" value="VARCHAR(20" style="shape=partialRectangle;connectable=0;fillColor=none;top=0;left=0;bottom=0;right=0;align=left;spacingLeft=6;overflow=hidden;" vertex="1" parent="MMZsTFJy08IuMzdYPkEU-5">
          <mxGeometry x="120" width="100" height="30" as="geometry" />
        </mxCell>
        <mxCell id="MMZsTFJy08IuMzdYPkEU-30" value="Questions Table" style="shape=table;startSize=30;container=1;collapsible=1;childLayout=tableLayout;fixedRows=1;rowLines=0;fontStyle=1;align=center;resizeLast=1;" vertex="1" parent="1">
          <mxGeometry x="290" y="130" width="210" height="160" as="geometry" />
        </mxCell>
        <mxCell id="MMZsTFJy08IuMzdYPkEU-31" value="" style="shape=partialRectangle;collapsible=0;dropTarget=0;pointerEvents=0;fillColor=none;top=0;left=0;bottom=1;right=0;points=[[0,0.5],[1,0.5]];portConstraint=eastwest;" vertex="1" parent="MMZsTFJy08IuMzdYPkEU-30">
          <mxGeometry y="30" width="210" height="30" as="geometry" />
        </mxCell>
        <mxCell id="MMZsTFJy08IuMzdYPkEU-32" value="PK" style="shape=partialRectangle;connectable=0;fillColor=none;top=0;left=0;bottom=0;right=0;fontStyle=1;overflow=hidden;" vertex="1" parent="MMZsTFJy08IuMzdYPkEU-31">
          <mxGeometry width="30" height="30" as="geometry" />
        </mxCell>
        <mxCell id="MMZsTFJy08IuMzdYPkEU-33" value="QuestionID" style="shape=partialRectangle;connectable=0;fillColor=none;top=0;left=0;bottom=0;right=0;align=left;spacingLeft=6;fontStyle=5;overflow=hidden;" vertex="1" parent="MMZsTFJy08IuMzdYPkEU-31">
          <mxGeometry x="30" width="80" height="30" as="geometry" />
        </mxCell>
        <mxCell id="MMZsTFJy08IuMzdYPkEU-72" value="TINYINT (US)" style="shape=partialRectangle;connectable=0;fillColor=none;top=0;left=0;bottom=0;right=0;align=left;spacingLeft=6;fontStyle=5;overflow=hidden;" vertex="1" parent="MMZsTFJy08IuMzdYPkEU-31">
          <mxGeometry x="110" width="100" height="30" as="geometry" />
        </mxCell>
        <mxCell id="MMZsTFJy08IuMzdYPkEU-34" value="" style="shape=partialRectangle;collapsible=0;dropTarget=0;pointerEvents=0;fillColor=none;top=0;left=0;bottom=0;right=0;points=[[0,0.5],[1,0.5]];portConstraint=eastwest;" vertex="1" parent="MMZsTFJy08IuMzdYPkEU-30">
          <mxGeometry y="60" width="210" height="30" as="geometry" />
        </mxCell>
        <mxCell id="MMZsTFJy08IuMzdYPkEU-35" value="FK" style="shape=partialRectangle;connectable=0;fillColor=none;top=0;left=0;bottom=0;right=0;editable=1;overflow=hidden;fontStyle=1" vertex="1" parent="MMZsTFJy08IuMzdYPkEU-34">
          <mxGeometry width="30" height="30" as="geometry" />
        </mxCell>
        <mxCell id="MMZsTFJy08IuMzdYPkEU-36" value="QuizID" style="shape=partialRectangle;connectable=0;fillColor=none;top=0;left=0;bottom=0;right=0;align=left;spacingLeft=6;overflow=hidden;" vertex="1" parent="MMZsTFJy08IuMzdYPkEU-34">
          <mxGeometry x="30" width="80" height="30" as="geometry" />
        </mxCell>
        <mxCell id="MMZsTFJy08IuMzdYPkEU-73" value="TINYINT (US)" style="shape=partialRectangle;connectable=0;fillColor=none;top=0;left=0;bottom=0;right=0;align=left;spacingLeft=6;overflow=hidden;" vertex="1" parent="MMZsTFJy08IuMzdYPkEU-34">
          <mxGeometry x="110" width="100" height="30" as="geometry" />
        </mxCell>
        <mxCell id="MMZsTFJy08IuMzdYPkEU-37" value="" style="shape=partialRectangle;collapsible=0;dropTarget=0;pointerEvents=0;fillColor=none;top=0;left=0;bottom=0;right=0;points=[[0,0.5],[1,0.5]];portConstraint=eastwest;" vertex="1" parent="MMZsTFJy08IuMzdYPkEU-30">
          <mxGeometry y="90" width="210" height="30" as="geometry" />
        </mxCell>
        <mxCell id="MMZsTFJy08IuMzdYPkEU-38" value="" style="shape=partialRectangle;connectable=0;fillColor=none;top=0;left=0;bottom=0;right=0;editable=1;overflow=hidden;" vertex="1" parent="MMZsTFJy08IuMzdYPkEU-37">
          <mxGeometry width="30" height="30" as="geometry" />
        </mxCell>
        <mxCell id="MMZsTFJy08IuMzdYPkEU-39" value="Question" style="shape=partialRectangle;connectable=0;fillColor=none;top=0;left=0;bottom=0;right=0;align=left;spacingLeft=6;overflow=hidden;" vertex="1" parent="MMZsTFJy08IuMzdYPkEU-37">
          <mxGeometry x="30" width="80" height="30" as="geometry" />
        </mxCell>
        <mxCell id="MMZsTFJy08IuMzdYPkEU-74" value="VARCHAR(150)" style="shape=partialRectangle;connectable=0;fillColor=none;top=0;left=0;bottom=0;right=0;align=left;spacingLeft=6;overflow=hidden;" vertex="1" parent="MMZsTFJy08IuMzdYPkEU-37">
          <mxGeometry x="110" width="100" height="30" as="geometry" />
        </mxCell>
        <mxCell id="MMZsTFJy08IuMzdYPkEU-40" value="" style="shape=partialRectangle;collapsible=0;dropTarget=0;pointerEvents=0;fillColor=none;top=0;left=0;bottom=0;right=0;points=[[0,0.5],[1,0.5]];portConstraint=eastwest;" vertex="1" parent="MMZsTFJy08IuMzdYPkEU-30">
          <mxGeometry y="120" width="210" height="30" as="geometry" />
        </mxCell>
        <mxCell id="MMZsTFJy08IuMzdYPkEU-41" value="" style="shape=partialRectangle;connectable=0;fillColor=none;top=0;left=0;bottom=0;right=0;editable=1;overflow=hidden;" vertex="1" parent="MMZsTFJy08IuMzdYPkEU-40">
          <mxGeometry width="30" height="30" as="geometry" />
        </mxCell>
        <mxCell id="MMZsTFJy08IuMzdYPkEU-42" value="Only_Multi" style="shape=partialRectangle;connectable=0;fillColor=none;top=0;left=0;bottom=0;right=0;align=left;spacingLeft=6;overflow=hidden;" vertex="1" parent="MMZsTFJy08IuMzdYPkEU-40">
          <mxGeometry x="30" width="80" height="30" as="geometry" />
        </mxCell>
        <mxCell id="MMZsTFJy08IuMzdYPkEU-75" value="BOOL" style="shape=partialRectangle;connectable=0;fillColor=none;top=0;left=0;bottom=0;right=0;align=left;spacingLeft=6;overflow=hidden;" vertex="1" parent="MMZsTFJy08IuMzdYPkEU-40">
          <mxGeometry x="110" width="100" height="30" as="geometry" />
        </mxCell>
        <mxCell id="MMZsTFJy08IuMzdYPkEU-44" value="" style="edgeStyle=entityRelationEdgeStyle;fontSize=12;html=1;endArrow=ERoneToMany;entryX=0;entryY=0.5;entryDx=0;entryDy=0;startArrow=ERmandOne;startFill=0;" edge="1" parent="1" source="MMZsTFJy08IuMzdYPkEU-2" target="MMZsTFJy08IuMzdYPkEU-34">
          <mxGeometry width="100" height="100" relative="1" as="geometry">
            <mxPoint x="370" y="430" as="sourcePoint" />
            <mxPoint x="470" y="330" as="targetPoint" />
          </mxGeometry>
        </mxCell>
        <mxCell id="MMZsTFJy08IuMzdYPkEU-45" value="Correct Answers Table" style="shape=table;startSize=30;container=1;collapsible=1;childLayout=tableLayout;fixedRows=1;rowLines=0;fontStyle=1;align=center;resizeLast=1;" vertex="1" parent="1">
          <mxGeometry x="590" y="20" width="250" height="130" as="geometry" />
        </mxCell>
        <mxCell id="MMZsTFJy08IuMzdYPkEU-46" value="" style="shape=partialRectangle;collapsible=0;dropTarget=0;pointerEvents=0;fillColor=none;top=0;left=0;bottom=1;right=0;points=[[0,0.5],[1,0.5]];portConstraint=eastwest;" vertex="1" parent="MMZsTFJy08IuMzdYPkEU-45">
          <mxGeometry y="30" width="250" height="30" as="geometry" />
        </mxCell>
        <mxCell id="MMZsTFJy08IuMzdYPkEU-47" value="PK" style="shape=partialRectangle;connectable=0;fillColor=none;top=0;left=0;bottom=0;right=0;fontStyle=1;overflow=hidden;" vertex="1" parent="MMZsTFJy08IuMzdYPkEU-46">
          <mxGeometry width="30" height="30" as="geometry" />
        </mxCell>
        <mxCell id="MMZsTFJy08IuMzdYPkEU-48" value="CorrectID" style="shape=partialRectangle;connectable=0;fillColor=none;top=0;left=0;bottom=0;right=0;align=left;spacingLeft=6;fontStyle=5;overflow=hidden;" vertex="1" parent="MMZsTFJy08IuMzdYPkEU-46">
          <mxGeometry x="30" width="110" height="30" as="geometry" />
        </mxCell>
        <mxCell id="MMZsTFJy08IuMzdYPkEU-76" value="TINYINT (US)" style="shape=partialRectangle;connectable=0;fillColor=none;top=0;left=0;bottom=0;right=0;align=left;spacingLeft=6;fontStyle=5;overflow=hidden;" vertex="1" parent="MMZsTFJy08IuMzdYPkEU-46">
          <mxGeometry x="140" width="110" height="30" as="geometry" />
        </mxCell>
        <mxCell id="MMZsTFJy08IuMzdYPkEU-49" value="" style="shape=partialRectangle;collapsible=0;dropTarget=0;pointerEvents=0;fillColor=none;top=0;left=0;bottom=0;right=0;points=[[0,0.5],[1,0.5]];portConstraint=eastwest;" vertex="1" parent="MMZsTFJy08IuMzdYPkEU-45">
          <mxGeometry y="60" width="250" height="30" as="geometry" />
        </mxCell>
        <mxCell id="MMZsTFJy08IuMzdYPkEU-50" value="FK" style="shape=partialRectangle;connectable=0;fillColor=none;top=0;left=0;bottom=0;right=0;editable=1;overflow=hidden;fontStyle=1" vertex="1" parent="MMZsTFJy08IuMzdYPkEU-49">
          <mxGeometry width="30" height="30" as="geometry" />
        </mxCell>
        <mxCell id="MMZsTFJy08IuMzdYPkEU-51" value="QuestionID" style="shape=partialRectangle;connectable=0;fillColor=none;top=0;left=0;bottom=0;right=0;align=left;spacingLeft=6;overflow=hidden;" vertex="1" parent="MMZsTFJy08IuMzdYPkEU-49">
          <mxGeometry x="30" width="110" height="30" as="geometry" />
        </mxCell>
        <mxCell id="MMZsTFJy08IuMzdYPkEU-77" value="TINYINT (US)" style="shape=partialRectangle;connectable=0;fillColor=none;top=0;left=0;bottom=0;right=0;align=left;spacingLeft=6;overflow=hidden;" vertex="1" parent="MMZsTFJy08IuMzdYPkEU-49">
          <mxGeometry x="140" width="110" height="30" as="geometry" />
        </mxCell>
        <mxCell id="MMZsTFJy08IuMzdYPkEU-52" value="" style="shape=partialRectangle;collapsible=0;dropTarget=0;pointerEvents=0;fillColor=none;top=0;left=0;bottom=0;right=0;points=[[0,0.5],[1,0.5]];portConstraint=eastwest;" vertex="1" parent="MMZsTFJy08IuMzdYPkEU-45">
          <mxGeometry y="90" width="250" height="30" as="geometry" />
        </mxCell>
        <mxCell id="MMZsTFJy08IuMzdYPkEU-53" value="" style="shape=partialRectangle;connectable=0;fillColor=none;top=0;left=0;bottom=0;right=0;editable=1;overflow=hidden;" vertex="1" parent="MMZsTFJy08IuMzdYPkEU-52">
          <mxGeometry width="30" height="30" as="geometry" />
        </mxCell>
        <mxCell id="MMZsTFJy08IuMzdYPkEU-54" value="CorrectAnswers" style="shape=partialRectangle;connectable=0;fillColor=none;top=0;left=0;bottom=0;right=0;align=left;spacingLeft=6;overflow=hidden;" vertex="1" parent="MMZsTFJy08IuMzdYPkEU-52">
          <mxGeometry x="30" width="110" height="30" as="geometry" />
        </mxCell>
        <mxCell id="MMZsTFJy08IuMzdYPkEU-78" value="VARCHAR(50)" style="shape=partialRectangle;connectable=0;fillColor=none;top=0;left=0;bottom=0;right=0;align=left;spacingLeft=6;overflow=hidden;" vertex="1" parent="MMZsTFJy08IuMzdYPkEU-52">
          <mxGeometry x="140" width="110" height="30" as="geometry" />
        </mxCell>
        <mxCell id="MMZsTFJy08IuMzdYPkEU-58" value="" style="edgeStyle=entityRelationEdgeStyle;fontSize=12;html=1;endArrow=ERoneToMany;entryX=0;entryY=0.5;entryDx=0;entryDy=0;startArrow=ERmandOne;startFill=0;exitX=1;exitY=0.5;exitDx=0;exitDy=0;" edge="1" parent="1" source="MMZsTFJy08IuMzdYPkEU-31" target="MMZsTFJy08IuMzdYPkEU-49">
          <mxGeometry width="100" height="100" relative="1" as="geometry">
            <mxPoint x="520" y="200" as="sourcePoint" />
            <mxPoint x="610" y="174.5" as="targetPoint" />
          </mxGeometry>
        </mxCell>
        <mxCell id="MMZsTFJy08IuMzdYPkEU-59" value="Incorrect Answers Table" style="shape=table;startSize=30;container=1;collapsible=1;childLayout=tableLayout;fixedRows=1;rowLines=0;fontStyle=1;align=center;resizeLast=1;" vertex="1" parent="1">
          <mxGeometry x="590" y="190" width="250" height="130" as="geometry" />
        </mxCell>
        <mxCell id="MMZsTFJy08IuMzdYPkEU-60" value="" style="shape=partialRectangle;collapsible=0;dropTarget=0;pointerEvents=0;fillColor=none;top=0;left=0;bottom=1;right=0;points=[[0,0.5],[1,0.5]];portConstraint=eastwest;" vertex="1" parent="MMZsTFJy08IuMzdYPkEU-59">
          <mxGeometry y="30" width="250" height="30" as="geometry" />
        </mxCell>
        <mxCell id="MMZsTFJy08IuMzdYPkEU-61" value="PK" style="shape=partialRectangle;connectable=0;fillColor=none;top=0;left=0;bottom=0;right=0;fontStyle=1;overflow=hidden;" vertex="1" parent="MMZsTFJy08IuMzdYPkEU-60">
          <mxGeometry width="30" height="30" as="geometry" />
        </mxCell>
        <mxCell id="MMZsTFJy08IuMzdYPkEU-62" value="IncorrectID" style="shape=partialRectangle;connectable=0;fillColor=none;top=0;left=0;bottom=0;right=0;align=left;spacingLeft=6;fontStyle=5;overflow=hidden;" vertex="1" parent="MMZsTFJy08IuMzdYPkEU-60">
          <mxGeometry x="30" width="110" height="30" as="geometry" />
        </mxCell>
        <mxCell id="MMZsTFJy08IuMzdYPkEU-79" value="SMALLINT (US)" style="shape=partialRectangle;connectable=0;fillColor=none;top=0;left=0;bottom=0;right=0;align=left;spacingLeft=6;fontStyle=5;overflow=hidden;" vertex="1" parent="MMZsTFJy08IuMzdYPkEU-60">
          <mxGeometry x="140" width="110" height="30" as="geometry" />
        </mxCell>
        <mxCell id="MMZsTFJy08IuMzdYPkEU-63" value="" style="shape=partialRectangle;collapsible=0;dropTarget=0;pointerEvents=0;fillColor=none;top=0;left=0;bottom=0;right=0;points=[[0,0.5],[1,0.5]];portConstraint=eastwest;" vertex="1" parent="MMZsTFJy08IuMzdYPkEU-59">
          <mxGeometry y="60" width="250" height="30" as="geometry" />
        </mxCell>
        <mxCell id="MMZsTFJy08IuMzdYPkEU-64" value="FK" style="shape=partialRectangle;connectable=0;fillColor=none;top=0;left=0;bottom=0;right=0;editable=1;overflow=hidden;fontStyle=1" vertex="1" parent="MMZsTFJy08IuMzdYPkEU-63">
          <mxGeometry width="30" height="30" as="geometry" />
        </mxCell>
        <mxCell id="MMZsTFJy08IuMzdYPkEU-65" value="QuestionID" style="shape=partialRectangle;connectable=0;fillColor=none;top=0;left=0;bottom=0;right=0;align=left;spacingLeft=6;overflow=hidden;" vertex="1" parent="MMZsTFJy08IuMzdYPkEU-63">
          <mxGeometry x="30" width="110" height="30" as="geometry" />
        </mxCell>
        <mxCell id="MMZsTFJy08IuMzdYPkEU-80" value="TINYINT (US)" style="shape=partialRectangle;connectable=0;fillColor=none;top=0;left=0;bottom=0;right=0;align=left;spacingLeft=6;overflow=hidden;" vertex="1" parent="MMZsTFJy08IuMzdYPkEU-63">
          <mxGeometry x="140" width="110" height="30" as="geometry" />
        </mxCell>
        <mxCell id="MMZsTFJy08IuMzdYPkEU-66" value="" style="shape=partialRectangle;collapsible=0;dropTarget=0;pointerEvents=0;fillColor=none;top=0;left=0;bottom=0;right=0;points=[[0,0.5],[1,0.5]];portConstraint=eastwest;" vertex="1" parent="MMZsTFJy08IuMzdYPkEU-59">
          <mxGeometry y="90" width="250" height="30" as="geometry" />
        </mxCell>
        <mxCell id="MMZsTFJy08IuMzdYPkEU-67" value="" style="shape=partialRectangle;connectable=0;fillColor=none;top=0;left=0;bottom=0;right=0;editable=1;overflow=hidden;" vertex="1" parent="MMZsTFJy08IuMzdYPkEU-66">
          <mxGeometry width="30" height="30" as="geometry" />
        </mxCell>
        <mxCell id="MMZsTFJy08IuMzdYPkEU-68" value="IncorrectAnswers" style="shape=partialRectangle;connectable=0;fillColor=none;top=0;left=0;bottom=0;right=0;align=left;spacingLeft=6;overflow=hidden;" vertex="1" parent="MMZsTFJy08IuMzdYPkEU-66">
          <mxGeometry x="30" width="110" height="30" as="geometry" />
        </mxCell>
        <mxCell id="MMZsTFJy08IuMzdYPkEU-81" value="VARCHAR(50)" style="shape=partialRectangle;connectable=0;fillColor=none;top=0;left=0;bottom=0;right=0;align=left;spacingLeft=6;overflow=hidden;" vertex="1" parent="MMZsTFJy08IuMzdYPkEU-66">
          <mxGeometry x="140" width="110" height="30" as="geometry" />
        </mxCell>
        <mxCell id="MMZsTFJy08IuMzdYPkEU-69" value="" style="edgeStyle=entityRelationEdgeStyle;fontSize=12;html=1;endArrow=ERzeroToMany;exitX=1;exitY=0.5;exitDx=0;exitDy=0;entryX=0;entryY=0.5;entryDx=0;entryDy=0;startArrow=ERmandOne;startFill=0;endFill=1;" edge="1" parent="1" source="MMZsTFJy08IuMzdYPkEU-31" target="MMZsTFJy08IuMzdYPkEU-63">
          <mxGeometry width="100" height="100" relative="1" as="geometry">
            <mxPoint x="530" y="184.5" as="sourcePoint" />
            <mxPoint x="620" y="215" as="targetPoint" />
          </mxGeometry>
        </mxCell>
      </root>
    </mxGraphModel>
  </diagram>
</mxfile>
